# xmcd
#
# Track frame offsets:
#	150
#	12962
#	30506
#	43786
#	58000
#	72702
#	86124
#	99271
#	109053
#	128193
#	139135
#	152019
#
# Disc length: 2201 seconds
#
# Revision: 0
# Processed by: cddbd v1.4PL0 Copyright (c) Steve Scherf et al.
# Submitted via: EasyCDDAExtractor 4.5.0.2
#
DISCID=a208970c
DTITLE=LEE KERNAGHAN - THE OUTBACK CLUB
DYEAR=1900
DGENRE=Country
TTITLE0=Boys From The Bush
TTITLE1=High Country
TTITLE2=She Waits By The Sliprails
TTITLE3=Walkin' Out West
TTITLE4=Country Girls
TTITLE5=Country's Really Big These Days
TTITLE6=Your The Reason I Never Saw Hank Jr Play
TTITLE7=Rejected
TTITLE8=Scots Of The Riverina
TTITLE9=You Don't Have To Go To Memphis
TTITLE10=Searching For Another You
TTITLE11=Tallarook
EXTD=
EXTT0=
EXTT1=
EXTT2=
EXTT3=
EXTT4=
EXTT5=
EXTT6=
EXTT7=
EXTT8=
EXTT9=
EXTT10=
EXTT11=
PLAYORDER=
